<svg xmlns="http://www.w3.org/2000/svg" viewBox="123.31 0 595.28 595.28">
  <title>bookingdotcom</title>
  <path d="M530.93 367.25c-12.62-39.7-39.37-67.57-79.28-85.75 6.57-5.77 11.42-10.02 16.25-14.3 58.99-52.34 65.78-149.38 14.03-208.84C449.86 21.5 407.05 5.57 359.9 2.29 301.75-1.75 243.38.72 185.13 1.08c-32.65.21-58.23 28.69-58.25 62.5-.12 173.14.03 346.27-.29 519.39-.02 10.1 3.02 12.37 12.62 12.31 67.5-.38 135-.06 202.48-.28 22.83-.07 45.4-3.15 67.44-9.22 121.77-33.52 147-139.23 121.8-218.53zM242.08 182.12l.03.05c0-14.01-.05-28.02.01-42.03.1-28.65 12.25-41.05 40.52-41.23 15.76-.1 31.53-.1 47.29-.03 42.88.14 68.3 24.37 69.87 66.51 1.6 42.7-23.78 73.05-64.92 75.16-28.4 1.45-56.92.14-85.38.49-7.23.06-7.5-3.6-7.46-8.99.14-16.68.04-33.3.04-49.93zm104.65 311.67c-31.49.48-62.99-.18-94.48.28-7.88.1-10.58-1.67-10.27-10.02.66-19.23.21-38.49.21-57.74h-.08c0-18.38-.2-36.75.04-55.12.34-25.26 13.07-37.7 38.27-37.75 21.88-.04 43.77-.22 65.61.04 44.67.55 74.88 32.34 74.98 78.57.12 49.47-28.3 81.03-74.28 81.74zm295.2 101.47c-39.69-.76-70.94-33.38-70.09-73.17.88-40.71 33.2-71.43 74.05-70.36 39.79 1.05 70.42 33.56 69.39 73.66-1 39.86-33.32 70.64-73.32 69.87h-.03z"/>
</svg>
