<svg version="1.1" id="icn--logo" xmlns="http://www.w3.org/2000/svg" viewBox="0 0 400 400">
  <path fill-rule="evenodd" clip-rule="evenodd" fill="#31a79b" d="M200 .5C89.736.5.499 89.737.499 199.896c0 26.097 5.005 51.019 14.099 73.864-16.622-63.104 6.279-137.314 91.04-186.638C189.33 38.371 246.24 63.793 311.834 69.756c16.11 1.674 0 39.439-49.378 28.664-34.314-5.231-73.754 1.988-109.428 22.806-114.996 66.836-92.22 178.476-11.687 205.872.537-2.078 1.211-4.131 1.958-6.163 2.092-5.439 6.905-12.763 11.507-16.424.941-.731 1.988-1.569 2.825-2.406a47.757 47.757 0 0 1 2.929-1.987c1.36-.941 2.929-1.884 4.498-2.511 4.185-1.673 7.114-2.615 11.612-3.243 2.302-.314 4.917-.418 7.323-.314 7.218.628 9.834 3.243 15.378 4.395 3.871.837 6.172.837 10.043.628 2.51-.104 6.904-1.465 9.31-2.512l1.57-.626c2.721-1.152 4.917-2.408 7.428-3.768.941-.522 1.987-1.255 2.93-1.883 1.046-.627 1.882-1.36 2.824-1.988l1.569-1.149c2.406-1.988 4.708-3.977 6.904-6.277 1.778-1.778 3.976-4.395 5.336-6.276l2.616-4.186c1.463-2.406 1.045-1.988 2.092-4.08 2.823-5.544 4.079-20.505 3.766-27.514-.106-2.929-.21-5.859-.629-8.787-.522-2.93-1.359-5.859-2.719-8.474-1.15-1.987-2.825-4.499-4.604-6.277-1.046-.941-2.093-1.987-3.138-3.034-2.197-1.987-5.022-3.871-7.115-5.753-1.149-1.151-2.301-1.988-3.242-3.034-1.047-1.046-2.093-1.884-3.035-3.034-2.405-3.139-4.394-5.754-5.544-9.624-.732-2.302-1.149-4.708-1.569-6.905-.312-2.406-.209-4.812 0-7.219l.42-3.662c.209-.627.313-1.255.522-1.883.104-.523.21-1.255.418-1.883 1.569-4.499 2.721-6.486 5.336-10.356 1.779-2.616 5.231-5.44 7.637-6.905 5.127-3.034 11.404-4.289 17.365-3.034 4.498.836 5.336 1.464 9.312 2.929l2.511 1.151c2.511 1.046 4.812 2.406 7.323 3.453a174.588 174.588 0 0 1 9.938 4.917c2.615 1.464 4.708 2.824 7.009 4.812.314.419.836.732 1.15 1.046 1.674 1.57 3.766 4.708 4.708 6.8l3.348 10.566c.104.418.209.627.314 1.046l2.092 8.578c.104.523.104.732.21 1.151l3.242 12.658c1.359 3.557 1.988 7.01 2.72 10.671.314 2.093.314 4.499.209 6.695-.104 2.301-.313 4.604-.94 6.905-1.151 4.706-1.675 5.334-3.349 9.414l-2.614 4.918-3.871 5.754c-1.883 2.615-7.114 7.846-9.206 10.251-1.359 1.57-3.244 3.034-4.708 4.604-2.615 2.51-5.439 4.707-8.578 6.59-2.721 1.569-5.858 2.93-8.683 4.289l-5.127 2.198c-.313.207-.837.418-1.256.626-.522.21-.731.21-1.256.523a63.052 63.052 0 0 0-12.447 7.639l-7.848 6.065c-5.753 4.604-10.983 9.521-15.691 15.169-2.406 2.931-4.289 5.858-6.173 9.101-1.422 2.657-2.93 6.845-4.368 9.789 17.306-4.062 35.619-11.315 54.583-22.342 35.675-20.713 60.678-50.947 72.08-82.854 13.391-47.285 55.342-43.205 49.273-28.664-25.316 58.794-28.873 119.364-112.46 168.01-47.023 27.361-92.082 34.868-131.386 28.677 17.195 4.829 35.33 7.416 54.075 7.416 110.159 0 199.501-89.34 199.501-199.604C399.501 89.737 310.159.5 200 .5zm-46.031 150.854c2.72-2.197 7.009-3.975 10.88-1.255 2.406 1.778 3.139 3.766 4.08 5.859.523 1.046.836 2.824.941 3.975 1.151 7.637-1.464 17.89-7.637 23.12-2.72 2.302-6.904 3.976-10.88 1.151-3.348-2.301-4.708-7.009-5.021-9.729-1.045-7.533 1.361-17.994 7.637-23.121zM117.04 182.53c.21-1.045.418-1.883.733-2.824l1.046-2.929.941-1.674c.209-.314.523-.942.837-1.36.314-.418.627-.732.941-1.15 5.126-5.649 11.822-4.917 15.901 1.883 2.72 4.708 3.766 13.6-.104 21.027-2.197 3.976-5.335 6.383-8.369 7.009-3.871.523-7.428-1.777-9.52-5.021-2.51-4.395-3.347-9.835-2.406-14.961zm55.76 51.052c0 3.348 0 6.8-1.046 10.356-1.151 4.29-2.825 6.8-7.114 7.219-7.742.627-14.332-5.44-19.877-10.462-3.138-2.929-4.917-5.334-9.624-5.962-3.243-.628-6.067-.523-9.311-1.466-.313-.104-.941-.418-1.36-.418l-1.674-.942c-.313-.313-.836-.628-1.255-.94-2.197-1.883-3.034-3.768-3.975-6.277l-.837-2.302c-.732-6.172 8.16-12.657 12.24-15.273 1.464-.837 2.825-1.778 4.289-2.511 1.36-.732 2.93-1.465 4.394-2.093l2.824-1.15c.209-.104.314-.104.523-.209l3.453-1.047c11.508-3.033 18.203-1.673 23.329 9.834.418.838 1.674 3.768 1.884 4.395 0 .523.104.732.313 1.255.628 1.988 1.046 3.766 1.465 5.754.731 3.346 1.463 8.89 1.359 12.239zm-2.511-47.809c.628-8.055 6.695-16.529 13.496-20.4 2.406-1.255 4.917-2.197 7.742-2.092 1.778.105 2.197.523 2.929.523l1.256.732c.313.313 1.255.837 2.197 2.093 3.871 5.858.313 15.064-3.662 20.19-3.348 4.499-8.474 8.683-13.705 9.416-7.114 1.045-10.671-3.871-10.253-10.462zm36.197 21.865c0 2.824-1.361 5.126-1.361 5.544l-.94 1.884c-.419.313-1.465 2.092-1.883 2.614-3.767 4.604-9.729 8.266-15.588 8.37-4.08.21-7.741-1.777-9.206-5.336-1.36-3.348-.418-7.532 1.255-10.775 3.452-6.485 10.357-11.193 17.157-11.926 3.871-.314 7.742 1.046 9.624 4.708.837 1.464 1.046 3.033.942 4.917zm85.052-82.856c-.419 1.779-.523 1.779-.942 3.243-1.359 3.871-4.916 7.324-8.056 9.521-.523.418-1.046.732-1.568 1.15-.419.209-.523.209-.837.314-2.72 1.673-3.243 1.569-5.544 2.615-3.14 1.36-8.579 2.721-12.031 1.36-4.604-1.987-7.323-8.264-7.429-12.449 0-1.255-.104-2.197 0-3.452.522-4.917 3.14-9.206 5.859-13.286 1.465-2.092 3.451-4.08 5.335-5.544 2.824-2.511 7.952-4.708 11.718-4.394 5.753.523 10.147 3.452 12.449 8.683.522 1.151.836 1.883 1.046 3.034.627 2.406.418 2.51.522 4.498.105 1.151-.208 3.557-.522 4.707zm14.75 31.803c-2.72.732-5.648.209-8.369-1.674-1.986-1.36-3.139-3.452-3.975-5.649-1.152-3.243-.628-6.8 1.046-9.833.732-1.151 1.674-1.988 2.51-2.825 2.616-2.301 5.755-3.138 8.998-3.348 2.092-.209 4.916.209 6.695 1.674 1.047.837 1.883 1.778 2.406 2.72.627 1.256.836 1.779 1.046 3.034.313 2.302-.628 4.499-1.359 6.591-1.152 3.348-4.081 7.114-7.323 8.684-.316.103-1.256.522-1.675.626zm1.778 19.354c-1.987-4.813 1.883-8.997 6.487-10.462 1.464-.523 3.033-.732 4.812-.418.942.209.732.314 1.674.733 2.72 1.255 3.976 4.917 3.976 7.322-.105 4.289-1.569 8.474-5.963 9.625-1.988.523-4.812-.105-6.696-1.151-2.824-1.569-3.453-3.347-4.29-5.649zm15.484 48.437c-.837.209-2.406.419-3.557-.104-5.022-2.304-1.256-7.325 2.406-8.37 1.15-.314 1.987-.314 3.452.104 1.569.313 2.405 1.673 2.511 2.824.105 2.512-2.616 5.127-4.812 5.546zm-1.255-17.366c-1.987.104-4.186-.522-5.964-1.674-2.091-1.465-3.138-4.917-2.72-7.532 1.256-7.428 10.147-6.696 14.019-1.988 2.615 3.348.627 10.776-5.335 11.194z"/>
</svg>
