<svg xmlns="http://www.w3.org/2000/svg" viewBox="0 0 1000 1000">
  <path fill="#00E300" d="M946.381 378.581l-.042-.15c-13.087-45.599-32.915-86.843-58.933-122.585-20.133-27.656-44.381-52.584-72.325-74.383h124.307c5.522 0 10-4.477 10-10V79.865c0-5.523-4.478-10-10-10H472.131c-5.523 0-10 4.477-10 10v412.833c0 5.523 4.477 10 10 10h90.268c5.522 0 10-4.477 10-10v-311.09c80.443 2.348 146.372 33.233 196.089 91.895 49.513 58.048 74.607 128.217 74.607 208.583 0 100.149-33.305 181.641-98.99 242.211-62.373 57.252-144.505 86.289-244.097 86.289-98.701 0-180.837-29.483-244.128-87.632-30.664-28.118-55.077-63.134-72.568-104.081-17.522-41.056-26.408-91.544-26.408-150.06 0-58.115 13.18-110.715 39.174-156.341 25.957-45.517 62.409-81.535 108.34-107.051a10 10 0 0 0 5.144-8.742V87.832a9.998 9.998 0 0 0-13.992-9.168c-38.337 16.693-73.342 38.435-104.042 64.621-30.689 26.177-57.908 57.504-80.902 93.112l-.054.085C88.943 270.73 71.59 309.524 58.995 351.788 46.39 394.161 40 444.697 40 501.996c0 57.786 12.123 114.531 36.032 168.658 23.919 54.148 57.1 100.819 98.622 138.717 43.242 40.078 92.582 70.562 146.653 90.61 53.963 20.009 114.087 30.154 178.702 30.154 65.459 0 125.995-9.798 179.925-29.12 54.109-19.388 103.029-48.879 145.398-87.656 41.543-37.911 74.737-84.59 98.653-138.729C947.883 620.525 960 565.348 960 510.628c0-54.17-4.582-98.598-13.619-132.047z"/>
</svg>
