<svg width="1155" height="1155">
  <path fill="#FFF" d="M0 0h1155v1155H0z"/>
  <path d="M490 70h35v35h-35zM525 70h35v35h-35zM630 70h35v35h-35zM735 70h35v35h-35zM385 105h35v35h-35zM525 105h35v35h-35zM560 105h35v35h-35zM595 105h35v35h-35zM665 105h35v35h-35zM700 105h35v35h-35zM385 140h35v35h-35zM420 140h35v35h-35zM490 140h35v35h-35zM525 140h35v35h-35zM630 140h35v35h-35zM665 140h35v35h-35zM700 140h35v35h-35zM770 140h35v35h-35zM385 175h35v35h-35zM420 175h35v35h-35zM525 175h35v35h-35zM560 175h35v35h-35zM595 175h35v35h-35zM700 175h35v35h-35zM735 175h35v35h-35zM770 175h35v35h-35zM385 210h35v35h-35zM420 210h35v35h-35zM525 210h35v35h-35zM560 210h35v35h-35zM630 210h35v35h-35zM700 210h35v35h-35zM350 245h35v35h-35zM385 245h35v35h-35zM420 245h35v35h-35zM490 245h35v35h-35zM525 245h35v35h-35zM560 245h35v35h-35zM700 245h35v35h-35zM735 245h35v35h-35zM350 280h35v35h-35zM420 280h35v35h-35zM490 280h35v35h-35zM560 280h35v35h-35zM630 280h35v35h-35zM700 280h35v35h-35zM770 280h35v35h-35zM385 315h35v35h-35zM455 315h35v35h-35zM560 315h35v35h-35zM665 315h35v35h-35zM700 315h35v35h-35zM70 350h35v35H70zM175 350h35v35h-35zM245 350h35v35h-35zM280 350h35v35h-35zM350 350h35v35h-35zM385 350h35v35h-35zM420 350h35v35h-35zM455 350h35v35h-35zM595 350h35v35h-35zM805 350h35v35h-35zM875 350h35v35h-35zM70 385h35v35H70zM105 385h35v35h-35zM140 385h35v35h-35zM210 385h35v35h-35zM315 385h35v35h-35zM385 385h35v35h-35zM455 385h35v35h-35zM560 385h35v35h-35zM595 385h35v35h-35zM665 385h35v35h-35zM700 385h35v35h-35zM770 385h35v35h-35zM805 385h35v35h-35zM840 385h35v35h-35zM945 385h35v35h-35zM1050 385h35v35h-35zM105 420h35v35h-35zM140 420h35v35h-35zM245 420h35v35h-35zM280 420h35v35h-35zM350 420h35v35h-35zM385 420h35v35h-35zM455 420h35v35h-35zM630 420h35v35h-35zM665 420h35v35h-35zM700 420h35v35h-35zM735 420h35v35h-35zM805 420h35v35h-35zM840 420h35v35h-35zM910 420h35v35h-35zM945 420h35v35h-35zM980 420h35v35h-35zM1015 420h35v35h-35zM105 455h35v35h-35zM245 455h35v35h-35zM350 455h35v35h-35zM420 455h35v35h-35zM455 455h35v35h-35zM490 455h35v35h-35zM560 455h35v35h-35zM595 455h35v35h-35zM735 455h35v35h-35zM805 455h35v35h-35zM875 455h35v35h-35zM980 455h35v35h-35zM1015 455h35v35h-35zM105 490h35v35h-35zM140 490h35v35h-35zM175 490h35v35h-35zM210 490h35v35h-35zM280 490h35v35h-35zM315 490h35v35h-35zM385 490h35v35h-35zM420 490h35v35h-35zM455 490h35v35h-35zM490 490h35v35h-35zM630 490h35v35h-35zM665 490h35v35h-35zM700 490h35v35h-35zM735 490h35v35h-35zM770 490h35v35h-35zM805 490h35v35h-35zM840 490h35v35h-35zM875 490h35v35h-35zM945 490h35v35h-35zM1015 490h35v35h-35zM1050 490h35v35h-35zM105 525h35v35h-35zM210 525h35v35h-35zM315 525h35v35h-35zM350 525h35v35h-35zM385 525h35v35h-35zM490 525h35v35h-35zM595 525h35v35h-35zM735 525h35v35h-35zM770 525h35v35h-35zM805 525h35v35h-35zM140 560h35v35h-35zM280 560h35v35h-35zM350 560h35v35h-35zM385 560h35v35h-35zM420 560h35v35h-35zM455 560h35v35h-35zM595 560h35v35h-35zM630 560h35v35h-35zM770 560h35v35h-35zM805 560h35v35h-35zM840 560h35v35h-35zM875 560h35v35h-35zM910 560h35v35h-35zM945 560h35v35h-35zM980 560h35v35h-35zM1015 560h35v35h-35zM1050 560h35v35h-35zM105 595h35v35h-35zM140 595h35v35h-35zM175 595h35v35h-35zM210 595h35v35h-35zM245 595h35v35h-35zM315 595h35v35h-35zM385 595h35v35h-35zM420 595h35v35h-35zM455 595h35v35h-35zM525 595h35v35h-35zM560 595h35v35h-35zM630 595h35v35h-35zM665 595h35v35h-35zM945 595h35v35h-35zM1015 595h35v35h-35zM210 630h35v35h-35zM245 630h35v35h-35zM280 630h35v35h-35zM315 630h35v35h-35zM350 630h35v35h-35zM385 630h35v35h-35zM525 630h35v35h-35zM560 630h35v35h-35zM595 630h35v35h-35zM630 630h35v35h-35zM665 630h35v35h-35zM735 630h35v35h-35zM805 630h35v35h-35zM875 630h35v35h-35zM1015 630h35v35h-35zM105 665h35v35h-35zM140 665h35v35h-35zM175 665h35v35h-35zM210 665h35v35h-35zM315 665h35v35h-35zM420 665h35v35h-35zM490 665h35v35h-35zM595 665h35v35h-35zM665 665h35v35h-35zM840 665h35v35h-35zM875 665h35v35h-35zM945 665h35v35h-35zM1050 665h35v35h-35zM70 700h35v35H70zM175 700h35v35h-35zM245 700h35v35h-35zM280 700h35v35h-35zM385 700h35v35h-35zM420 700h35v35h-35zM525 700h35v35h-35zM665 700h35v35h-35zM770 700h35v35h-35zM840 700h35v35h-35zM875 700h35v35h-35zM910 700h35v35h-35zM1015 700h35v35h-35zM1050 700h35v35h-35zM210 735h35v35h-35zM245 735h35v35h-35zM315 735h35v35h-35zM420 735h35v35h-35zM490 735h35v35h-35zM525 735h35v35h-35zM595 735h35v35h-35zM630 735h35v35h-35zM665 735h35v35h-35zM700 735h35v35h-35zM875 735h35v35h-35zM910 735h35v35h-35zM1015 735h35v35h-35zM1050 735h35v35h-35zM70 770h35v35H70zM140 770h35v35h-35zM245 770h35v35h-35zM280 770h35v35h-35zM315 770h35v35h-35zM350 770h35v35h-35zM560 770h35v35h-35zM630 770h35v35h-35zM770 770h35v35h-35zM805 770h35v35h-35zM840 770h35v35h-35zM875 770h35v35h-35zM910 770h35v35h-35zM980 770h35v35h-35zM350 805h35v35h-35zM490 805h35v35h-35zM525 805h35v35h-35zM595 805h35v35h-35zM630 805h35v35h-35zM665 805h35v35h-35zM700 805h35v35h-35zM770 805h35v35h-35zM910 805h35v35h-35zM980 805h35v35h-35zM1015 805h35v35h-35zM1050 805h35v35h-35zM385 840h35v35h-35zM420 840h35v35h-35zM490 840h35v35h-35zM525 840h35v35h-35zM560 840h35v35h-35zM595 840h35v35h-35zM665 840h35v35h-35zM700 840h35v35h-35zM770 840h35v35h-35zM840 840h35v35h-35zM910 840h35v35h-35zM1015 840h35v35h-35zM350 875h35v35h-35zM385 875h35v35h-35zM420 875h35v35h-35zM525 875h35v35h-35zM630 875h35v35h-35zM770 875h35v35h-35zM910 875h35v35h-35zM945 875h35v35h-35zM980 875h35v35h-35zM1015 875h35v35h-35zM1050 875h35v35h-35zM490 910h35v35h-35zM560 910h35v35h-35zM595 910h35v35h-35zM630 910h35v35h-35zM665 910h35v35h-35zM770 910h35v35h-35zM805 910h35v35h-35zM840 910h35v35h-35zM875 910h35v35h-35zM910 910h35v35h-35zM1015 910h35v35h-35zM350 945h35v35h-35zM455 945h35v35h-35zM560 945h35v35h-35zM595 945h35v35h-35zM630 945h35v35h-35zM665 945h35v35h-35zM735 945h35v35h-35zM840 945h35v35h-35zM875 945h35v35h-35zM910 945h35v35h-35zM945 945h35v35h-35zM980 945h35v35h-35zM1050 945h35v35h-35zM420 980h35v35h-35zM525 980h35v35h-35zM735 980h35v35h-35zM805 980h35v35h-35zM910 980h35v35h-35zM945 980h35v35h-35zM980 980h35v35h-35zM1050 980h35v35h-35zM420 1015h35v35h-35zM490 1015h35v35h-35zM630 1015h35v35h-35zM665 1015h35v35h-35zM700 1015h35v35h-35zM735 1015h35v35h-35zM770 1015h35v35h-35zM875 1015h35v35h-35zM1015 1015h35v35h-35zM350 1050h35v35h-35zM490 1050h35v35h-35zM595 1050h35v35h-35zM665 1050h35v35h-35zM700 1050h35v35h-35zM770 1050h35v35h-35zM875 1050h35v35h-35zM945 1050h35v35h-35zM1015 1050h35v35h-35z"/>
  <path fill="none" d="M106.75 106.75h171.5v171.5h-171.5z"/>
  <path d="M278.25 70H70v245h245V70h-36.75zm0 208.25h-171.5v-171.5h171.5v171.5z"/>
  <path fill="none" d="M876.75 106.75h171.5v171.5h-171.5z"/>
  <path d="M1048.25 70H840v245h245V70h-36.75zm0 208.25h-171.5v-171.5h171.5v171.5z"/>
  <path fill="none" d="M106.75 876.75h171.5v171.5h-171.5z"/>
  <path d="M278.25 840H70v245h245V840h-36.75zm0 208.25h-171.5v-171.5h171.5v171.5z"/>
  <g>
    <path d="M140 140h105v105H140z"/>
  </g>
  <g>
    <path d="M910 140h105v105H910z"/>
  </g>
  <g>
    <path d="M140 910h105v105H140z"/>
  </g>
</svg>
