<svg xmlns="http://www.w3.org/2000/svg" viewBox="123.31 0 595.28 595.28">
  <title>tripadvisor</title>
  <path d="M270.79 299.66c-13.35 0-24.17 10.82-24.17 24.17 0 13.37 10.82 24.18 24.17 24.18s24.17-10.81 24.17-24.18c0-13.35-10.82-24.17-24.17-24.17zm298.02-.33c-13.35 0-24.18 10.81-24.18 24.18s10.83 24.18 24.18 24.18c13.36 0 24.17-10.81 24.17-24.18s-10.81-24.18-24.17-24.18zm-297.76-47.42c-39.72 0-71.92 32.21-71.92 71.93 0 39.74 32.2 71.92 71.92 71.92 39.73 0 71.93-32.17 71.93-71.92 0-39.73-32.2-71.93-71.93-71.93zm0 121.76c-27.52 0-49.83-22.31-49.83-49.84 0-27.53 22.31-49.84 49.83-49.84 27.53 0 49.84 22.31 49.84 49.84 0 27.53-22.31 49.84-49.84 49.84zm298.03-122.09c-39.73 0-71.91 32.19-71.91 71.93 0 39.71 32.19 71.92 71.91 71.92 39.71 0 71.92-32.21 71.92-71.92 0-39.74-32.21-71.93-71.92-71.93zm0 121.76c-27.52 0-49.84-22.31-49.84-49.83 0-27.54 22.32-49.85 49.84-49.85 27.52 0 49.84 22.31 49.84 49.85 0 27.52-22.32 49.83-49.84 49.83zm149.5-195.24h-99.03c-50.51-33.98-119.47-55.22-198.57-55.22-79.13 0-152.83 21.22-203.34 55.22H123.3c15.38 18 26.77 42.35 29.6 59.08-17.79 24.43-28.32 54.49-28.32 87.02 0 81.85 66.34 148.19 148.18 148.19 46.43 0 87.86-21.4 115.03-54.82 11.08 12.94 29.42 38.99 33.15 46.56 0 0 21.28-31.78 33.23-46.43 27.16 33.35 68.56 54.68 114.94 54.68 81.83 0 148.18-66.35 148.18-148.19 0-32.51-10.55-62.54-28.32-86.97 2.83-16.72 14.22-41.09 29.61-59.12zM272.77 443.49c-65.88 0-119.29-53.41-119.29-119.3 0-65.87 53.41-119.28 119.29-119.28 65.88 0 119.29 53.41 119.29 119.28.01 65.89-53.4 119.3-119.29 119.3zm.23-267.45c42.4-18.46 95.04-28.42 147.98-28.42 53.03 0 101.08 10 143.53 28.53-79.68 2.44-143.54 67.75-143.56 148.02-.02-81.74-66.23-148.02-147.95-148.13zm296.13 267.45c-65.89 0-119.3-53.41-119.3-119.3 0-65.87 53.41-119.28 119.3-119.28 65.87 0 119.28 53.41 119.28 119.28 0 65.89-53.41 119.3-119.28 119.3z"/>
</svg>
