<svg xmlns="http://www.w3.org/2000/svg" viewBox="123.31 0 595.28 595.28">
  <title>tumblr</title>
  <path d="M685.82 32.74C664 10.92 637.71 0 606.97 0H234.92c-30.74 0-57.03 10.92-78.87 32.74-21.83 21.83-32.74 48.12-32.74 78.87v372.05c0 30.74 10.92 57.04 32.74 78.87 21.83 21.83 48.12 32.75 78.87 32.75h372.05c30.74 0 57.04-10.92 78.86-32.75 21.83-21.83 32.75-48.12 32.75-78.87V111.61c-.01-30.74-10.92-57.04-32.76-78.87zm-127.3 463.71c-19.89 9.3-37.21 15.63-51.93 18.98-16.02 3.62-32.68 5.43-49.99 5.43-20.16 0-38.24-2.58-54.26-7.75-15.76-5.17-29.2-12.53-40.3-22.09-10.85-9.31-18.48-19.38-22.87-30.23-4.4-11.11-6.59-26.74-6.59-46.89V257.32h-49.22v-63.17c17.57-5.94 32.55-14.08 44.96-24.42 12.66-10.85 22.74-23.64 30.23-38.36 7.49-14.73 12.66-33.72 15.5-56.97h63.56v112.78H543.8v70.14H437.61v114.33c0 25.58 1.42 42.24 4.26 50 2.58 7.23 7.62 13.04 15.11 17.44 9.56 5.95 20.93 8.91 34.11 8.91 22.22 0 44.7-7.23 67.43-21.7v70.15z"/>
</svg>
